<?xml version="1.0" encoding="iso-8859-1"?>
<!-- Generator: Adobe Illustrator 19.0.0, SVG Export Plug-In . SVG Version: 6.00 Build 0)  -->
<svg version="1.1" id="Layer_1" xmlns="http://www.w3.org/2000/svg" xmlns:xlink="http://www.w3.org/1999/xlink" x="0px" y="0px"
	 viewBox="0 0 512 512" style="enable-background:new 0 0 512 512;" xml:space="preserve">
<path style="fill:#8CC1EA;" d="M350.078,402.844h-98.233l62.303-268.982h93.708c50.724,0,91.837,41.113,91.837,91.823v177.159
	h-44.132"/>
<polyline style="fill:#F2CA7F;" points="84.722,402.844 45.167,402.844 45.167,106.173 314.148,106.173 314.148,133.863 
	314.148,402.844 190.205,402.844 "/>
<rect x="45.167" y="308.022" style="fill:#79B1D6;" width="268.983" height="94.824"/>
<g>
	<circle style="fill:#898686;" cx="137.468" cy="402.847" r="52.737"/>
	<circle style="fill:#898686;" cx="402.823" cy="402.847" r="52.737"/>
</g>
<path style="fill:#CEE5F2;" d="M460.138,266.375v-40.691c0-28.82-23.453-52.266-52.281-52.266h-54.153v92.957H460.138z"/>
<g>
	<circle style="fill:#EDEBEB;" cx="137.468" cy="402.847" r="21.059"/>
	<circle style="fill:#EDEBEB;" cx="402.823" cy="402.847" r="21.059"/>
</g>
<g>
	<path style="fill:#9E9A9A;" d="M137.464,430.581c-15.294,0-27.736-12.443-27.736-27.736s12.443-27.736,27.736-27.736
		s27.736,12.443,27.736,27.736S152.759,430.581,137.464,430.581z M137.464,388.462c-7.93,0-14.382,6.452-14.382,14.382
		s6.452,14.382,14.382,14.382c7.93,0,14.382-6.452,14.382-14.382S145.395,388.462,137.464,388.462z"/>
	<path style="fill:#9E9A9A;" d="M402.82,430.581c-15.294,0-27.737-12.443-27.737-27.736s12.444-27.736,27.737-27.736
		s27.736,12.443,27.736,27.736S418.114,430.581,402.82,430.581z M402.82,388.462c-7.931,0-14.383,6.452-14.383,14.382
		s6.452,14.382,14.383,14.382c7.93,0,14.382-6.452,14.382-14.382S410.75,388.462,402.82,388.462z"/>
</g>
<path style="fill:#FFFFFF;" d="M460.136,346.582c-4.61,0-8.346-3.737-8.346-8.346v-25.052c0-4.609,3.736-8.346,8.346-8.346
	s8.346,3.737,8.346,8.346v25.052C468.483,342.845,464.747,346.582,460.136,346.582z"/>
<g>
	<path style="fill:#E0B76E;" d="M503.654,387.585h-26.217c-4.61,0-8.346-3.737-8.346-8.346c0-4.609,3.736-8.346,8.346-8.346h26.217
		c4.61,0,8.346,3.737,8.346,8.346C512,383.848,508.264,387.585,503.654,387.585z"/>
	<path style="fill:#E0B76E;" d="M61.859,387.585H35.642c-4.609,0-8.346-3.737-8.346-8.346c0-4.609,3.737-8.346,8.346-8.346h26.217
		c4.609,0,8.346,3.737,8.346,8.346C70.205,383.848,66.468,387.585,61.859,387.585z"/>
</g>
<circle style="fill:#FFFFFF;" cx="88.86" cy="145.27" r="80.513"/>
<g>
	<path style="fill:#898686;" d="M88.855,234.126C39.859,234.126,0,194.266,0,145.271s39.859-88.855,88.855-88.855
		s88.855,39.861,88.855,88.855S137.85,234.126,88.855,234.126z M88.855,73.109c-39.79,0-72.163,32.372-72.163,72.163
		s32.372,72.163,72.163,72.163s72.163-32.372,72.163-72.163S128.646,73.109,88.855,73.109z"/>
	<path style="fill:#898686;" d="M109.469,153.618H88.855c-4.61,0-8.346-3.737-8.346-8.346V98.805c0-4.609,3.736-8.346,8.346-8.346
		c4.61,0,8.346,3.737,8.346,8.346v38.12h12.268c4.61,0,8.346,3.737,8.346,8.346C117.816,149.881,114.08,153.618,109.469,153.618z"/>
</g>
<g>
</g>
<g>
</g>
<g>
</g>
<g>
</g>
<g>
</g>
<g>
</g>
<g>
</g>
<g>
</g>
<g>
</g>
<g>
</g>
<g>
</g>
<g>
</g>
<g>
</g>
<g>
</g>
<g>
</g>
</svg>
